<?xml version="1.0" encoding="utf-8"?>
<!-- Generator: Adobe Illustrator 25.3.1, SVG Export Plug-In . SVG Version: 6.00 Build 0)  -->
<svg version="1.1" id="图层_1" xmlns="http://www.w3.org/2000/svg" xmlns:xlink="http://www.w3.org/1999/xlink" x="0px" y="0px"
	 viewBox="0 0 1000 1000" style="enable-background:new 0 0 1000 1000;" xml:space="preserve">
<style type="text/css">
	.st0{fill:url(#SVGID_1_);}
	.st1{fill:#B7BCBF;}
	.st2{fill:url(#SVGID_2_);}
	.st3{fill:#FFFFFF;}
	.st4{fill:url(#SVGID_3_);}
</style>
<g>
	<linearGradient id="SVGID_1_" gradientUnits="userSpaceOnUse" x1="500" y1="865" x2="500" y2="135">
		<stop  offset="0" style="stop-color:#000000"/>
		<stop  offset="1" style="stop-color:#151718"/>
	</linearGradient>
	<path class="st0" d="M754.06,865H245.94C184.67,865,135,815.33,135,754.06V245.94C135,184.67,184.67,135,245.94,135h508.12
		C815.33,135,865,184.67,865,245.94v508.12C865,815.33,815.33,865,754.06,865z"/>
	<g>
		<g>
			<g>
				<g>
					<path class="st3" d="M512.56,286.53l-35.18,50.01c-5.53,7.79-14.57,12.56-24.37,12.56H261.28v-62.82
						C261.28,286.53,512.56,286.53,512.56,286.53z"/>
					<polygon class="st3" points="751.28,286.53 449.74,713.72 248.72,713.72 550.26,286.53 					"/>
					<path class="st3" d="M487.44,713.72l35.43-50.26c5.53-7.79,14.57-12.56,24.37-12.56h191.48v62.82H487.44z"/>
				</g>
			</g>
		</g>
	</g>
</g>
</svg>
